PathFileType	4	(X/Y/Z)	C:\Users\Basilio\Documents\Thesis Gigler\squatting_fais\c3dfiles\058\SJ_pre5\markers_experimental.trc
DataRate	CameraRate	NumFrames	NumMarkers	Units	OrigDataRate	OrigDataStartFrame	OrigNumFrames
200.000000	200.000000	4	61	mm	200.000000	308	1235
Frame#	Time	FHD			LBHD			RBHD			C7			T10			CLAV			LSHO			LUUPA			LMUPA			LDUPA			LLEP			LMEP			LRAD			LUL			LRFIN			RSHO			RUPA1			RMUPA			RDUPA			RLEP			RMEP			RRAD			RUL			RUFIN			LASI			RASI			USACR			LSACR			RSACR			LTHI1			LTHI2			LTHI3			LTHI4			LLFC			LMFC			LTIB1			LTIB2			LTIB3			LTIB4			LLMAL			LMMAL			LHEE			LMT1			LMT2			LMT5			RTHI			RTHI2			RTHI3			RTHI4			RLFC			RMFC			RTIB1			RTIB2			RTIB3			RTIB4			RLMAL			RMMAL			RHEE			RMT1			RMT2			RMT5			
		X1	Y1	Z1	X2	Y2	Z2	X3	Y3	Z3	X4	Y4	Z4	X5	Y5	Z5	X6	Y6	Z6	X7	Y7	Z7	X8	Y8	Z8	X9	Y9	Z9	X10	Y10	Z10	X11	Y11	Z11	X12	Y12	Z12	X13	Y13	Z13	X14	Y14	Z14	X15	Y15	Z15	X16	Y16	Z16	X17	Y17	Z17	X18	Y18	Z18	X19	Y19	Z19	X20	Y20	Z20	X21	Y21	Z21	X22	Y22	Z22	X23	Y23	Z23	X24	Y24	Z24	X25	Y25	Z25	X26	Y26	Z26	X27	Y27	Z27	X28	Y28	Z28	X29	Y29	Z29	X30	Y30	Z30	X31	Y31	Z31	X32	Y32	Z32	X33	Y33	Z33	X34	Y34	Z34	X35	Y35	Z35	X36	Y36	Z36	X37	Y37	Z37	X38	Y38	Z38	X39	Y39	Z39	X40	Y40	Z40	X41	Y41	Z41	X42	Y42	Z42	X43	Y43	Z43	X44	Y44	Z44	X45	Y45	Z45	X46	Y46	Z46	X47	Y47	Z47	X48	Y48	Z48	X49	Y49	Z49	X50	Y50	Z50	X51	Y51	Z51	X52	Y52	Z52	X53	Y53	Z53	X54	Y54	Z54	X55	Y55	Z55	X56	Y56	Z56	X57	Y57	Z57	X58	Y58	Z58	X59	Y59	Z59	X60	Y60	Z60	X61	Y61	Z61	

309	1.54	55.07951736450197	1113.389770507813	-828.4871826171877	-106.8514480590821	1083.069213867188	-900.4556884765627	66.6713333129883	1122.916748046875	-970.0646972656252	-149.4993133544922	1020.206665039063	-915.983825683594	-407.3681030273439	868.8721313476565	-894.8204345703127	-65.16556549072267	869.5752563476565	-896.927917480469	-27.08166503906251	903.901550292969	-1059.635375976563	-188.7283782958985	924.218688964844	-1228.89599609375	-207.0570373535157	877.1132812500002	-1231.408203125	-248.2330627441407	907.2634887695315	-1263.463012695313	-330.4139709472657	891.3262939453127	-1293.150390625	-366.2779235839844	943.6060791015627	-1246.392456054688	-482.3126220703126	770.1077270507815	-1095.018310546875	-425.1351623535157	732.6039428710939	-1074.030639648438	-491.8053283691407	707.7601318359376	-1147.133056640625	-33.01499557495118	928.0257568359377	-737.2098999023439	-194.8402099609376	964.605651855469	-579.3041992187501	-213.5135803222657	918.0838623046877	-575.4685668945314	-252.9389953613282	946.9961547851565	-542.2701416015626	-320.8631896972657	945.547058105469	-510.4698181152345	-373.6123352050782	982.4980468750002	-574.6806030273439	-445.0429687500001	767.9867553710939	-675.8613891601564	-441.8222045898439	715.2370605468751	-614.3176269531251	-397.2635192871095	715.7724609375001	-708.4063110351564	nan	nan	nan	nan	nan	nan	-529.7210693359376	789.7523193359377	-881.9967041015627	-557.8024902343751	770.851013183594	-908.774841308594	-556.5755004882814	770.8509521484377	-851.9848632812502	-373.3319091796876	575.5410156250001	-1132.93798828125	-288.9510498046876	569.3929443359376	-1151.375366210938	-262.7486572265626	601.5002441406251	-1125.112182617188	-256.9114990234376	517.7803344726564	-1163.00244140625	-182.769027709961	472.702362060547	-1169.267822265625	-147.492431640625	457.341766357422	-1051.368896484375	-149.0506896972657	337.1484375000001	-1144.633056640625	-221.8585205078126	331.8182678222657	-1192.721801757813	-186.4513092041016	308.1540527343751	-1174.597778320313	-226.9132995605469	236.3107299804688	-1147.4736328125	-364.9449157714844	89.85031127929689	-1155.353637695313	-329.2356262207032	94.52196502685548	-1070.3154296875	-428.5822753906251	49.92983627319337	-1101.3916015625	-203.2682342529297	63.2006187438965	-1119.1220703125	-206.2494201660157	61.10170364379884	-1166.090942382813	-260.9129943847657	36.17354202270509	-1213.732055664063	-455.3799743652345	564.9145507812501	-653.3026733398439	-391.3333435058595	577.3923339843751	-640.7280273437501	-375.6391601562501	605.9967651367189	-646.6654663085939	-332.5365600585938	519.6777343750001	-628.4696655273439	-194.9878540039063	457.3374938964845	-608.2356567382814	-142.3195037841797	451.8130798339845	-731.8344116210939	-190.6627655029297	279.7376708984376	-690.4943847656251	-265.7984313964844	225.7427673339844	-628.6917114257814	-233.6592407226563	208.2861785888672	-657.2892456054689	-256.1579589843751	171.1400909423828	-694.9106445312501	-355.0352172851563	93.1361541748047	-657.6599121093751	-313.8818054199219	99.62776184082034	-741.1245117187501	-420.8222045898439	52.20587539672853	-720.8755493164064	-205.6943664550782	55.83892822265626	-682.4948120117189	-214.5271911621094	61.71544647216798	-630.8842773437501	-265.2279357910157	25.41939163208009	-587.0825195312501	
310	1.545	55.46570205688478	1113.758422851563	-828.2899169921877	-106.7875900268555	1082.992919921875	-900.6373291015627	66.77074432373048	1122.770263671875	-970.2301025390627	-149.4630889892578	1020.215637207031	-916.155212402344	-407.2680053710939	868.7805786132815	-894.9841308593752	-65.13076019287111	869.5534667968752	-897.0616455078127	-27.16162681579591	903.652770996094	-1059.776489257813	-188.6864471435547	924.0563964843752	-1229.0458984375	-207.1231842041016	876.9356689453127	-1231.498901367188	-248.1614532470704	907.065856933594	-1263.636474609375	-330.4067687988282	891.0584716796877	-1293.342529296875	-366.2484741210938	943.4694824218752	-1246.512329101563	-482.256561279297	769.996032714844	-1095.158081054688	-425.462615966797	732.3826293945314	-1073.819702148438	-491.7674865722657	707.6527709960939	-1147.214477539063	-32.75872421264649	927.9399414062502	-737.3157348632814	-194.8448791503907	964.6026611328127	-579.4625854492189	-213.4603424072266	917.9160156250002	-575.6176757812501	-252.9423065185547	946.9591064453127	-542.3923950195314	-320.8677673339844	945.499938964844	-510.7092285156251	-373.5628662109376	982.409362792969	-574.8228759765626	-444.8259582519532	767.9178466796876	-676.0019531250001	-441.8230285644532	715.1982421875001	-614.3787841796876	-397.3031616210939	715.7348022460939	-708.4882202148439	nan	nan	nan	nan	nan	nan	-529.7497558593751	789.5697021484377	-882.043151855469	-557.8143920898439	770.7069091796877	-908.8763427734377	-556.6157226562501	770.6524047851565	-852.0518798828127	-373.2413024902344	575.4157104492189	-1133.015869140625	-288.9602966308594	569.3303833007814	-1151.383056640625	-262.6933288574219	601.4064941406251	-1125.130249023438	-256.7438659667969	517.7202758789064	-1163.01513671875	-182.6413116455078	472.6403808593751	-1169.369140625	-147.493148803711	457.0886230468751	-1051.423217773438	-148.8936614990235	336.9016723632813	-1144.587890625	-221.7339782714844	331.7724304199219	-1192.713623046875	-186.279525756836	308.1160583496094	-1174.579711914063	-226.9039001464844	236.2563934326172	-1147.470581054688	-364.9458618164063	89.83367919921876	-1155.380737304688	-329.2355957031251	94.55083465576173	-1070.307739257813	-428.538299560547	50.01282501220705	-1101.362426757813	-203.3261260986329	63.15036010742189	-1119.179321289063	-206.2337493896485	61.10749435424806	-1166.081665039063	-260.8896484375001	36.16976165771485	-1213.727905273438	-455.358123779297	564.8565673828126	-653.3280639648439	-391.3662109375001	577.2678833007814	-640.8507080078126	-375.6116943359376	605.9461669921876	-646.7698974609376	-332.4981384277344	519.6606445312501	-628.5570678710939	-194.9416046142579	457.401824951172	-608.2962036132814	-142.3326873779297	451.8027954101564	-731.8352050781251	-190.6659851074219	279.6415100097657	-690.5922241210939	-265.7885131835938	225.7462463378907	-628.7437744140626	-233.5935211181641	208.1946868896485	-657.3151855468751	-256.1349792480469	171.1132049560547	-694.9921264648439	-355.0520935058594	93.17611694335939	-657.6940917968751	-313.8698120117188	99.62178039550784	-741.1318969726564	-420.824188232422	52.19786071777345	-720.9008789062501	-205.7044219970704	55.79184341430665	-682.4942016601564	-214.4884185791016	61.72091674804689	-630.8884887695314	-265.2046203613282	25.4420394897461	-587.0753784179689	
311	1.55	55.10329818725587	1113.2275390625	-828.810729980469	-106.7400054931641	1082.85986328125	-900.7803955078127	66.80319976806642	1122.612426757813	-970.244079589844	-149.5181884765625	1020.073303222656	-916.303649902344	-407.2943725585939	868.612487792969	-895.025085449219	-65.13013458251955	869.495300292969	-897.099304199219	-27.20389556884766	903.543640136719	-1059.898315429688	-188.672592163086	923.9267578125002	-1229.198120117188	-206.9997558593751	876.7898559570315	-1231.663818359375	-248.1239013671876	906.8770141601565	-1263.7373046875	-330.4346923828126	890.860290527344	-1293.520385742188	-366.1701049804688	943.3386230468752	-1246.691162109375	-482.107879638672	769.9014892578127	-1095.297241210938	-425.5407714843751	732.1730346679689	-1073.8525390625	-491.7611083984376	707.5197143554689	-1147.319091796875	-32.67024993896485	927.7590942382815	-737.3867797851564	-194.7739715576172	964.5713500976565	-579.6279296875001	-213.430892944336	917.9111328125002	-575.7382202148439	-252.9362030029297	946.9243164062502	-542.5380859375001	-320.8663330078126	945.5000610351565	-510.9676818847657	-373.6658630371094	982.2673950195315	-574.8986206054689	-444.7991333007814	767.8013305664064	-676.0150146484376	-441.7955932617189	715.1394042968751	-614.4001464843751	-397.2982788085939	715.6975097656251	-708.5787963867189	nan	nan	nan	nan	nan	nan	-529.7557373046876	789.3491210937502	-882.239196777344	-557.7957763671876	770.501159667969	-909.0200195312502	-556.6719970703126	770.4985961914065	-852.0900878906252	-373.0316772460938	575.2821655273439	-1133.139404296875	-288.9125671386719	569.2763061523439	-1151.400634765625	-262.6018066406251	601.3542480468751	-1125.185302734375	-256.5586242675782	517.5683593750001	-1163.037719726563	-182.5831146240235	472.5900268554689	-1169.382446289063	-147.4960021972657	456.8900146484376	-1051.48095703125	-148.9264373779297	336.8833923339844	-1144.59130859375	-221.6484375000001	331.7408447265626	-1192.749267578125	-186.2822265625	308.0943908691407	-1174.580444335938	-226.8839569091797	236.1887207031251	-1147.47216796875	-364.9273071289063	89.84032440185548	-1155.362182617188	-329.1817321777344	94.54476165771486	-1070.310546875	-428.531219482422	50.01796340942384	-1101.367553710938	-203.2916259765626	63.15267181396486	-1119.170288085938	-206.2406158447266	61.11731338500978	-1166.080932617188	-260.8595581054688	36.16380691528321	-1213.760375976563	-455.3177795410157	564.8531494140626	-653.4506835937501	-391.2954711914064	577.2918701171876	-640.9384155273439	-375.5989074707032	605.9102783203126	-646.8880004882814	-332.5187988281251	519.5369873046876	-628.6781616210939	-194.8682556152344	457.4047851562501	-608.3897094726564	-142.1043853759766	451.8597412109376	-731.9340209960939	-190.5271148681641	279.6869812011719	-690.6580200195314	-265.7808227539063	225.7446746826172	-628.7669677734376	-233.5044860839844	208.2130279541016	-657.3969116210939	-256.1347961425782	171.0962829589844	-694.9886474609376	-355.0599060058594	93.17813873291017	-657.6959838867189	-313.8058471679688	99.59425354003909	-741.1449584960939	-420.8376464843751	52.21995544433595	-720.9122314453126	-205.6901397705079	55.76185226440431	-682.4932250976564	-214.5037078857422	61.70256423950197	-630.9166259765626	-265.2006530761719	25.45361709594727	-587.0816040039064	
312	1.555	55.60394668579103	1113.580078125	-828.6170654296877	-106.3947525024414	1083.306030273438	-901.0034179687502	66.86112213134767	1122.468139648438	-970.3599853515627	-149.5382995605469	1020.002685546875	-916.449401855469	-407.2609252929689	868.3665161132815	-895.1374511718752	-65.12296295166017	869.4094238281252	-897.2031250000002	-27.16471099853516	903.405456542969	-1059.964599609375	-188.556137084961	923.7233886718752	-1229.367553710938	-206.8489532470704	876.6683349609377	-1231.810424804688	-248.0884246826172	906.7500000000002	-1263.882446289063	-330.4819946289063	890.604431152344	-1293.681640625	-366.1272888183594	943.203063964844	-1246.866455078125	-482.121795654297	769.736511230469	-1095.405029296875	-425.6470336914064	732.0138549804689	-1073.875244140625	-491.751678466797	707.3464965820314	-1147.49560546875	-32.67154693603516	927.7322387695315	-737.4839477539064	-194.9038085937501	964.535339355469	-579.7191772460939	-213.4910583496094	917.8129882812502	-575.7899780273439	-252.9507904052735	946.8684692382815	-542.6385498046876	-320.8813781738282	945.4475708007815	-511.0334777832032	-373.6896667480469	982.2354736328127	-575.0617675781251	-444.6509704589845	767.7398071289064	-676.0426635742189	-441.8105773925782	714.9940185546876	-614.4714965820314	-397.340789794922	715.5800170898439	-708.5975952148439	nan	nan	nan	nan	nan	nan	-529.6436157226564	789.1797485351565	-882.501892089844	-557.7734375000001	770.3209228515627	-909.1447753906252	-556.5951538085939	770.3666992187502	-852.183288574219	-372.9409484863282	575.1316528320314	-1133.180297851563	-288.9548950195313	569.3565063476564	-1151.405029296875	-262.5328979492188	601.2406005859376	-1125.246337890625	-256.4801025390626	517.4224243164064	-1163.125732421875	-182.4341125488282	472.9078674316407	-1169.4228515625	-147.3773345947266	456.9306640625001	-1051.421630859375	-148.9007263183594	336.8481750488282	-1144.573852539063	-221.4898529052735	331.6621704101563	-1192.796508789063	-186.2724761962891	308.0304565429688	-1174.57177734375	-226.5851745605469	235.925277709961	-1147.498046875	-364.9182128906251	89.83914947509767	-1155.347900390625	-329.1703186035157	94.5315628051758	-1070.32470703125	-428.5510253906251	50.00545883178712	-1101.370483398438	-203.2699127197266	63.12937927246095	-1119.143798828125	-206.2765045166016	61.09743499755861	-1166.09765625	-260.8142089843751	36.16057205200196	-1213.754638671875	-455.2900390625001	564.8148803710939	-653.5342407226564	-390.975555419922	577.2185668945314	-641.0559082031251	-375.6004028320313	605.7969970703126	-646.9803466796876	-332.4772033691407	519.4816284179689	-628.7745971679689	-194.8028717041016	457.3351135253907	-608.5158081054689	-142.0547485351563	451.765106201172	-732.0223388671876	-190.4326171875	279.6427612304688	-690.7172241210939	-265.7700195312501	225.7281799316407	-628.8218383789064	-233.4329833984376	208.2379150390626	-657.4373168945314	-256.1427612304688	171.084716796875	-695.0230712890626	-355.0168457031251	93.2152557373047	-657.7107543945314	-313.7998352050782	99.58424377441409	-741.1806030273439	-420.8391723632814	52.2342987060547	-720.8780517578126	-205.6770935058594	55.78003311157228	-682.5349731445314	-214.4940795898438	61.692684173584	-630.9028930664064	-265.1658020019532	25.48642730712891	-587.0744628906251	
